# xmcd
#
# Track frame offsets:
#	150
#	11222
#	21894
#	34387
#	43707
#	57315
#	64852
#	80327
#	88677
#	98567
#
# Disc length: 1452 seconds
#
# Revision: 0
# Processed by: cddbd v1.4PL0 Copyright (c) Steve Scherf et al.
# Submitted via: audiograbber 1.80.04
#
DISCID=7d05aa0a
DTITLE=Fats Domino - Greatest Hits-Live
DYEAR=1900
DGENRE=Pop
TTITLE0=Blueberry Hill
TTITLE1=Ain't That  A Shame
TTITLE2=When My Dreamboat Comes Home
TTITLE3=My Blue Heaven
TTITLE4=Poor Me
TTITLE5=When The Saints Go Marching In
TTITLE6=I'm In Love Again
TTITLE7=My Girl Josephine
TTITLE8=Walking to New Orleans
TTITLE9=I'm Gonna Be A Wheel Someday
EXTD=
EXTT0=
EXTT1=
EXTT2=
EXTT3=
EXTT4=
EXTT5=
EXTT6=
EXTT7=
EXTT8=
EXTT9=
PLAYORDER=
